<?xml version="1.0" encoding="iso-8859-1"?>
<!-- Uploaded to: SVG Repo, www.svgrepo.com, Generator: SVG Repo Mixer Tools -->
<!DOCTYPE svg PUBLIC "-//W3C//DTD SVG 1.1//EN" "http://www.w3.org/Graphics/SVG/1.1/DTD/svg11.dtd">
<svg fill="#000000" version="1.1" id="Capa_1" xmlns="http://www.w3.org/2000/svg" xmlns:xlink="http://www.w3.org/1999/xlink" 
	 width="800px" height="800px" viewBox="0 0 122.496 122.495"
	 xml:space="preserve">
<g>
	<g>
		<path d="M59.14,74.459c-1.893,2.35-4.651,3.834-7.73,3.834c-4.523,0-8.359-3.197-9.764-7.645
			c-4.85,0.949-8.929,2.608-11.025,4.914c0.702,3.6,1.231,7.203,1.598,10.803c-0.522-0.081-1.053-0.137-1.598-0.137
			c-5.713,0-10.344,4.633-10.344,10.345c0,5.715,4.631,10.345,10.344,10.345c0.545,0,1.077-0.054,1.599-0.136
			c-0.367,3.604-0.896,7.209-1.599,10.813c2.088,2.297,6.144,3.948,10.968,4.899c1.359-4.535,5.24-7.815,9.821-7.815
			c3.182,0,6.025,1.584,7.921,4.066c-0.119-0.639-0.188-1.294-0.188-1.966L59.14,74.459z"/>
		<circle cx="75.443" cy="12.653" r="12.653"/>
		<path d="M102.166,63.695c-2.939-20.032-7.387-28.612-18.307-35.31c-0.212-0.13-0.436-0.222-0.658-0.316
			c-1.408-0.939-2.992-1.633-4.604-2.028l-3.152,3.172l-3.056-3.208c-0.01,0.002-0.021,0.005-0.031,0.005
			c-2.338,0.561-4.611,1.746-6.388,3.41c-9.756,6.565-13.911,15.258-16.701,34.275c-0.394,2.685,1.463,5.18,4.147,5.574
			c0.242,0.033,0.481,0.053,0.719,0.053c2.397,0,4.496-1.758,4.854-4.201c1.004-6.841,2.165-11.841,3.503-15.619v15.469
			c0,1.322,0.256,2.553,0.707,3.688c-0.035,0.256-0.059,0.514-0.059,0.777l0.003,47.041c0,3.207,2.601,5.807,5.806,5.807
			c3.207,0,5.807-2.602,5.805-5.807l-0.002-40.369c0.229,0.01,0.459,0.024,0.691,0.024c0.045,0,0.09-0.004,0.137-0.006
			l-0.002,40.351c0,3.205,2.599,5.807,5.806,5.807c3.206,0,5.806-2.602,5.806-5.807l0.002-46.754
			c0.76-1.408,1.203-3.002,1.203-4.754V48.051c1.572,3.924,2.912,9.314,4.049,17.07c0.358,2.443,2.457,4.201,4.854,4.201
			c0.238,0,0.479-0.02,0.721-0.053C100.703,68.875,102.559,66.38,102.166,63.695z M75.473,54.258h-0.06l-3.051-4.175l2.363-15.801
			c0.236-0.637,0.337-1.312,0.297-1.995l0.391-2.604h0.06l3.051,20.399L75.473,54.258z"/>
	</g>
</g>
</svg>